<svg height="73" viewBox="0 0 73 73" width="73" xmlns="http://www.w3.org/2000/svg"><g fill="none" fill-rule="nonzero"><rect fill="#fff" height="71" rx="14" stroke="#062b4c" stroke-width="2" width="71" x="1" y="1"/><g transform="translate(10 11)"><g fill="#adacb2" transform="translate(3.830078 9.730469)"><path d="m39.0662793 8.18249609h-15.7248516v-7.09785937c0-.54894336-.4449101-.99385352-.9938535-.99385352-.5488398 0-.9938535.44491016-.9938535.99385352v7.09785937h-15.72474804c-3.09615235 0-5.61520508 2.51894921-5.61520508 5.61520511v1.729332c0 .5489434.44491015.9938535.99385351.9938535s.99385352-.4449101.99385352-.9938535v-1.7295391c0-2.0002324 1.62726562-3.6276015 3.62770508-3.6276015h33.43730661c2.0002324 0 3.6277051 1.6274726 3.6277051 3.6277051v1.994332c0 .5489433.4449102.9938535.9938535.9938535.5489434 0 .99375-.4449102.99375-.9938535v-1.9945391c-.0003105-3.0960488-2.5193633-5.61489451-5.6155156-5.61489451z"/><path d="m40.4911719 19.6167285h-14.37625c-.5488399 0-.9938535-.4449101-.9938535-.99375 0-.5489433.4449101-.9938535.9938535-.9938535h14.37625c.5488398 0 .9938535.4449102.9938535.9938535-.0001035.5488399-.4450137.99375-.9938535.99375z"/><path d="m9.86141602 19.6167285h-5.41034766c-.54883984 0-.99385352-.4449101-.99385352-.99375 0-.5489433.44491016-.9938535.99385352-.9938535h5.41034766c.54883988 0 .99385348.4449102.99385348.9938535 0 .5488399-.4450136.99375-.99385348.99375z"/><path d="m18.4299219 19.6167285h-5.0348965c-.5488399 0-.9938535-.4449101-.9938535-.99375 0-.5489433.4449101-.9938535.9938535-.9938535h5.0348965c.5488398 0 .9938535.4449102.9938535.9938535 0 .5488399-.4450137.99375-.9938535.99375z"/><path d="m22.3475742 32.6857832c-.5488398 0-.9938535-.4449102-.9938535-.9938535v-9.4075c0-.5489434.4449102-.99375.9938535-.99375.5488399 0 .9938535.4449101.9938535.99375v9.4075c0 .5490469-.4450136.9938535-.9938535.9938535z"/><path d="m37.9593867 35.573248h-10.5539355c-.5488399 0-.9938535-.4449101-.9938535-.99375 0-.5489433.4449101-.9938535.9938535-.9938535h10.5539355c.5488399 0 .9938535.4449102.9938535.9938535-.000207.5489434-.4451172.99375-.9938535.99375z"/></g><path d="m33.5502422 8.50028906h-14.7450762v-7.79451953c0-.36592773.2965723-.6625.6625-.6625h13.4200762c.3659277 0 .6625.29657227.6625.6625z" fill="#30d8b8"/><path d="m33.5501387 8.50028906-7.3727969 1.08153125-7.3721758-1.08153125v-2.58716601h14.7449727z" fill="#00c6a5"/><path d="m32.8876387 11.7157949h-13.4199727c-.3659277 0-.6625-.2965722-.6625-.6625v-2.55300584h14.7450762v2.55310934c-.0001035.3658243-.2966758.6623965-.6626035.6623965z" fill="#e0e0e3"/><g fill="#efefef" transform="translate(22.152344 2.794922)"><path d="m7.01214844 2.85454687c-.54883985 0-.99385352-.44491015-.99385352-.99385351v-.76798242c0-.54894336.44491016-.99385352.99385352-.99385352.54883984 0 .99375.44491016.99375.99385352v.76798242c0 .54904687-.44491016.99385351-.99375.99385351z"/><path d="m4.02541211 2.85454687c-.54883984 0-.99385352-.44491015-.99385352-.99385351v-.76798242c0-.54894336.44491016-.99385352.99385352-.99385352.54883984 0 .99385351.44491016.99385351.99385352v.76798242c-.00010351.54904687-.44501367.99385351-.99385351.99385351z"/><path d="m1.03857227 2.85454687c-.54883985 0-.99385352-.44491015-.99385352-.99385351v-.76798242c0-.54894336.44491016-.99385352.99385352-.99385352.54883984 0 .99385351.44491016.99385351.99385352v.76798242c-.00010351.54904687-.44501367.99385351-.99385351.99385351z"/></g><g fill="#ff318e"><circle cx="4.837699" cy="28.353343" r="4.417529"/><circle cx="47.517191" cy="28.353343" r="4.417529"/></g><circle cx="46.837922" cy="44.309656" fill="#30d8b8" r="6.161871"/><path d="m25.7092441 33.4014902-4.5796347-4.5796347c-.2586856-.2586856-.2586856-.6782344 0-.93692l4.5796347-4.5796347c.2586856-.2586856.6782344-.2586856.93692 0l4.5796347 4.5796347c.2586856.2586856.2586856.6781309 0 .93692l-4.5796347 4.5796347c-.2587891.2586856-.6782344.2586856-.93692 0z" fill="#00a5ff"/><g fill="#ea1f8e" transform="translate(.414062 26.603516)"><path d="m8.8410625 1.75055273c0 2.43934571-1.97818359 4.4161836-4.4175293 4.4161836-2.4393457 0-4.41763281-1.97694141-4.41763281-4.4161836 0-.5989414.11935352-1.16858789.33394141-1.689375.6638457 1.6005586 2.2419414 2.7268086 4.0836914 2.7268086 1.84164649 0 3.41984571-1.12635352 4.08369141-2.7268086.21458789.52078711.33383789 1.0904336.33383789 1.689375z"/><path d="m51.5206582 1.75055273c0 2.43934571-1.9769414 4.4161836-4.4176328 4.4161836-2.4393457 0-4.4175293-1.97694141-4.4175293-4.4161836 0-.5989414.1191465-1.16858789.3339414-1.689375.6638457 1.6005586 2.2419414 2.7268086 4.0835879 2.7268086 1.8418535 0 3.4198457-1.12635352 4.0836914-2.7268086.2145879.52078711.3339414 1.0904336.3339414 1.689375z"/></g><path d="m31.2255918 28.8224766-4.5791172 4.5791171c-.2586855.2586856-.6782344.2586856-.9369199.0001036l-4.5802559-4.5792207c-.2586855-.2586856-.258789-.6781309-.0001035-.9370235l1.2208633-1.2208633 3.8279043 3.8265586 3.8265586-3.8265586 1.2209668 1.2209668c.258789.2587891.258789.6782344.0001035.93692z" fill="#0087ff"/><path d="m28.5218672 48.7944707h-24.17317579c-2.40176954 0-4.34869141-1.9469219-4.34869141-4.3485879s1.94692187-4.3486914 4.34869141-4.3486914h24.17317579c2.401666 0 4.3486914 1.9469219 4.3486914 4.3486914 0 2.401666-1.9469219 4.3485879-4.3486914 4.3485879z" fill="#ffe97b"/><path d="m53 44.3097598c0 3.4039043-2.7586914 6.1625957-6.1611465 6.1625957-3.4039043 0-6.1625957-2.7586914-6.1625957-6.1625957 0-.6135371.0900586-1.2070957.2570293-1.7661836.7591836 2.5414121 3.1150957 4.3949629 5.9054629 4.3949629 2.789125 0 5.1450371-1.8536543 5.9042207-4.3949629.1669707.5590879.2570293 1.1526465.2570293 1.7661836z" fill="#00c6a5"/><path d="m32.8705586 44.4460898c0 1.2003672-.4863164 2.2868672-1.2733457 3.074-.7870293.7870293-1.874875 1.2745879-3.0753457 1.2745879h-24.17317579c-2.40228711.0002071-4.34869141-1.9476464-4.34869141-4.3485879 0-.6281328.1338457-1.225625.37369141-1.7661835.6770957 1.5210585 2.20208789 2.5810585 3.975 2.5810585h24.17327929c1.2004707 0 2.2883164-.4863164 3.0753457-1.2733457.3750371-.3750371.6811328-.8174628.8996543-1.3078164.2398457.5407657.3735879 1.1383614.3735879 1.7662871z" fill="#ffd527"/><path d="m46.089918 46.9570684c-.2634473 0-.5162325-.1046543-.7026641-.2909825l-1.6533516-1.653248c-.38808-.3880801-.38808-1.0172481 0-1.4053281.3880801-.3881836 1.0172481-.3880801 1.4053282-.0001036l.9506875.9506875 2.3839648-2.3839648c.3880801-.3881836 1.0172481-.3880801 1.4053281-.0001035.3880801.3880801.3880801 1.017248 0 1.4053281l-3.0865254 3.0866289c-.1864316.1863281-.4392168.291086-.7027675.291086z" fill="#efefef"/><path d="m26.1961816 45.3037168h-19.52159762c-.54883984 0-.99385351-.4449102-.99385351-.99375 0-.5489434.44491015-.9938535.99385351-.9938535h19.52159762c.5488399 0 .9938536.4449101.9938536.9938535-.0002071.5489434-.4450137.99375-.9938536.99375z" fill="#00a5ff"/></g></g></svg>